<?xml version="1.0" encoding="UTF-8"?>
<svg width="47px" height="31px" viewBox="0 0 47 31" version="1.1" xmlns="http://www.w3.org/2000/svg" xmlns:xlink="http://www.w3.org/1999/xlink">
    <title>logo</title>
    <g id="User-Interface" stroke="none" stroke-width="1" fill="none" fill-rule="evenodd">
        <g id="Home" transform="translate(-306.000000, -56.000000)" fill="#E4C049">
            <g id="Navigation-Bar" transform="translate(306.000000, 54.000000)">
                <g id="Shape" transform="translate(0.000000, 2.000000)">
                    <path d="M18.4602023,12.9760901 C11.6285463,16.744609 5.32902025,16.4644605 2.26320621,13.4498971 C1.20093887,12.4055437 0.0769096845,10.5842187 0.0039184244,8.30005532 C-0.0889960084,5.39086224 1.49236055,3.31492218 2.42241047,2.42358958 C6.16235223,-1.16008173 14.754311,-0.4688809 25.0152883,5.55143517 C30.2123385,1.43461857 37.1675181,-1.52707988 42.3258086,0.843753349 C43.9921104,1.60975635 45.281683,2.72549546 46.0487251,4.06636034 C47.3783252,6.39026239 47.1488465,8.98262513 46.3669525,10.7958585 C45.2186533,13.4585281 42.5782896,14.85028 40.6710986,15.4402462 C39.1286828,15.9172898 35.3199155,16.0115118 30.9656156,14.0817597 C30.0982381,13.6966403 29.2583107,13.2532729 28.4516734,12.7547404 C32.0304186,18.682273 32.4667361,24.406617 29.9792374,27.7619259 C29.2020525,28.8098755 28.0430672,29.7718746 26.6698173,30.3526703 C24.7655242,31.1580524 22.3376139,31.2938111 20.2101813,30.289556 C17.0706515,28.8073582 15.0922805,25.0280504 15.7365234,20.8112578 C15.7365234,20.8112578 15.7861503,18.2205134 18.4591156,12.9759103 L18.4602023,12.9760901 Z M28.8974091,7.9210097 C33.1435806,10.8061079 38.3469699,12.7040331 41.0849572,10.6696299 C41.5739805,10.3067674 42.8657266,9.15794272 42.7394861,7.60507842 C42.6351612,6.31977573 41.5078718,5.40686559 41.0212031,5.07762815 C38.0742036,3.08296353 32.8697275,5.20583475 28.8974091,7.9210097 L28.8974091,7.9210097 Z M20.2110869,7.7314869 C14.8108204,5.32451127 7.37186994,3.12144349 5.22252184,5.77260505 C4.83003534,6.25702103 4.21151138,7.40512646 4.49079804,8.74239508 C4.65905829,9.54831655 5.14174243,10.2184793 5.66807643,10.6696299 C6.48927338,11.3735974 8.16897796,11.9259827 10.8866798,11.3964336 C13.565441,10.8749762 16.2275391,9.11568668 17.473643,8.61616642 C18.3645416,8.25978873 19.2789072,7.96420837 20.2103624,7.7314869 L20.2110869,7.7314869 Z M23.3613028,13.1341456 C20.1326621,18.3231866 18.9035834,23.2723571 20.8799622,25.5189397 C21.265385,25.9573235 22.3108082,26.8981047 23.7438277,26.8135926 C25.2228516,26.7271026 26.2034339,25.5442933 26.5122431,25.1075277 C28.423781,22.4042204 26.4867052,17.3870806 23.3620272,13.1334264 L23.3613028,13.1341456 Z"></path>
                </g>
            </g>
        </g>
    </g>
</svg>